<?xml version="1.0" encoding="UTF-8" standalone="no"?>
<!DOCTYPE svg PUBLIC "-//W3C//DTD SVG 1.1//EN" "http://www.w3.org/Graphics/SVG/1.1/DTD/svg11.dtd">
<svg width="100%" height="100%" viewBox="0 0 700 489" version="1.1" xmlns="http://www.w3.org/2000/svg" xmlns:xlink="http://www.w3.org/1999/xlink" xml:space="preserve" xmlns:serif="http://www.serif.com/" style="fill-rule:evenodd;clip-rule:evenodd;stroke-linejoin:round;stroke-miterlimit:2;">
    <g transform="matrix(1,0,0,1,-50,-155.5)">
        <g transform="matrix(50,0,0,50,0,0)">
            <path d="M14.712,4.633C15,5.728 15,8 15,8C15,8 15,10.272 14.712,11.367C14.549,11.968 14.079,12.438 13.478,12.601C12.382,12.89 8,12.89 8,12.89C8,12.89 3.618,12.89 2.522,12.601C1.923,12.44 1.45,11.967 1.288,11.367C1,10.283 1,8 1,8C1,8 1,5.728 1.288,4.633C1.45,4.033 1.922,3.56 2.522,3.399C3.618,3.11 8,3.11 8,3.11C8,3.11 12.382,3.11 13.478,3.399C14.079,3.562 14.549,4.032 14.712,4.633ZM6.593,10.11L10.237,8.012L6.593,5.902L6.593,10.11Z" style="fill:white;"/>
        </g>
    </g>
</svg>
