<?xml version="1.0" encoding="UTF-8" standalone="no"?>
<!DOCTYPE svg PUBLIC "-//W3C//DTD SVG 1.1//EN" "http://www.w3.org/Graphics/SVG/1.1/DTD/svg11.dtd">
<svg width="100%" height="100%" viewBox="0 0 934 300" version="1.1" xmlns="http://www.w3.org/2000/svg" xmlns:xlink="http://www.w3.org/1999/xlink" xml:space="preserve" xmlns:serif="http://www.serif.com/" style="fill-rule:evenodd;clip-rule:evenodd;stroke-linejoin:round;stroke-miterlimit:2;">
    <g>
        <path d="M0,0L100,0L100,66.667L133.333,66.667L133.333,33.333L166.667,33.333L166.667,0L266.667,0L266.667,100L233.333,100L233.333,133.333L200,133.333L200,166.667L233.333,166.667L233.333,200L266.667,200L266.667,300L166.667,300L166.667,266.667L133.333,266.667L133.333,233.333L100,233.333L100,300L0,300L0,0ZM666.667,0L766.667,0L766.667,66.667L800,66.667L800,33.333L833.333,33.333L833.333,0L933.333,0L933.333,100L900,100L900,133.333L866.667,133.333L866.667,166.667L900,166.667L900,200L933.333,200L933.333,300L833.333,300L833.333,266.667L800,266.667L800,233.333L766.667,233.333L766.667,300L666.667,300L666.667,0ZM300,0L400,0L400,300L300,300L300,0ZM633.333,0L466.667,0L466.667,33.333L433.333,33.333L433.333,266.667L466.667,266.667L466.667,300L633.333,300L633.333,200L533.333,200L533.333,100L633.333,100L633.333,0Z" style="fill:white;"/>
    </g>
</svg>
